<?xml version="1.0" encoding="UTF-8"?>
<!DOCTYPE svg PUBLIC "-//W3C//DTD SVG 1.1//EN" "http://www.w3.org/Graphics/SVG/1.1/DTD/svg11.dtd">
<svg xmlns="http://www.w3.org/2000/svg" version="1.1" width="506px" height="564px" style="shape-rendering:geometricPrecision; text-rendering:geometricPrecision; image-rendering:optimizeQuality; fill-rule:evenodd; clip-rule:evenodd" xmlns:xlink="http://www.w3.org/1999/xlink">
<g><path style="opacity:0.982" fill="#444444" d="M 284.5,7.5 C 304.227,8.92429 323.894,10.9243 343.5,13.5C 344.075,22.7578 345.075,31.9244 346.5,41C 355.137,43.4344 363.637,46.2678 372,49.5C 379.365,42.4696 386.365,35.1363 393,27.5C 409.564,36.1987 426.064,45.0321 442.5,54C 443.554,55.3876 443.72,56.8876 443,58.5C 440.359,67.4224 437.526,76.2557 434.5,85C 461.775,106.41 483.775,132.243 500.5,162.5C 464.505,163.667 428.505,163.833 392.5,163C 347.079,123.647 295.079,111.313 236.5,126C 179.616,143.919 142.449,181.419 125,238.5C 123.034,244.129 122.201,249.795 122.5,255.5C 145,241.416 167.667,227.582 190.5,214C 193.531,211.441 195.698,208.274 197,204.5C 202.921,169.545 223.088,155.711 257.5,163C 260.167,165 260.167,167 257.5,169C 250.081,173.125 242.914,177.625 236,182.5C 234.903,186.384 234.403,190.384 234.5,194.5C 234.403,198.616 234.903,202.616 236,206.5C 241.761,210.881 248.095,214.214 255,216.5C 264.096,212.284 272.762,207.284 281,201.5C 282.526,202.545 283.359,204.045 283.5,206C 279.118,230.546 264.451,243.712 239.5,245.5C 231.981,244.661 224.648,242.994 217.5,240.5C 214.49,241.269 211.49,242.103 208.5,243C 179.298,261.032 149.965,278.865 120.5,296.5C 124.783,349.242 148.783,390.409 192.5,420C 249.033,453.781 306.367,455.114 364.5,424C 371.516,419.826 378.183,415.159 384.5,410C 421.165,409.5 457.832,409.333 494.5,409.5C 492.809,414.547 490.309,419.213 487,423.5C 479.522,433.625 471.689,443.458 463.5,453C 467.776,462.385 472.442,471.552 477.5,480.5C 462.689,492.144 448.022,503.977 433.5,516C 431.711,516.52 430.044,516.187 428.5,515C 421.869,508.69 414.869,502.857 407.5,497.5C 400.658,501.422 393.658,505.088 386.5,508.5C 386.015,519.102 386.015,529.602 386.5,540C 368.353,544.912 350.186,549.745 332,554.5C 331.167,554.167 330.333,553.833 329.5,553.5C 325.667,545.833 321.833,538.167 318,530.5C 308.167,529.86 298.334,530.526 288.5,532.5C 285.833,540.5 283.167,548.5 280.5,556.5C 278.667,556.833 276.833,557.167 275,557.5C 257.155,555.536 239.321,553.536 221.5,551.5C 220.723,542.176 220.056,532.842 219.5,523.5C 210.777,521.537 202.277,518.87 194,515.5C 186.667,523.5 179.333,531.5 172,539.5C 155.084,529.626 138.251,519.626 121.5,509.5C 124.633,500.102 127.966,490.768 131.5,481.5C 123.649,475.405 115.982,469.072 108.5,462.5C 100.5,466.5 92.5,470.5 84.5,474.5C 72.1211,458.994 60.2877,443.327 49,427.5C 54.8649,420.923 60.3649,414.09 65.5,407C 60.8161,398.8 56.8161,390.3 53.5,381.5C 44.981,381.886 36.481,382.553 28,383.5C 26.8333,383.167 25.6667,382.833 24.5,382.5C 18.9663,364.565 13.6329,346.565 8.5,328.5C 8.83333,327.833 9.16667,327.167 9.5,326.5C 17.8333,322 26.1667,317.5 34.5,313C 32.8789,304.29 32.2123,295.456 32.5,286.5C 23.1859,284.007 14.0192,281.007 5,277.5C 6.25472,258.457 8.25472,239.457 11,220.5C 11.7504,219.874 12.5838,219.374 13.5,219C 22.1594,218.239 30.826,217.572 39.5,217C 40,216.5 40.5,216 41,215.5C 42.91,208.102 45.41,200.935 48.5,194C 41.3235,187.656 34.3235,181.156 27.5,174.5C 36.7996,157.372 46.2996,140.372 56,123.5C 64.7042,126.344 73.3709,129.344 82,132.5C 87.5216,124.799 93.5216,117.466 100,110.5C 96.2347,101.824 92.068,93.1573 87.5,84.5C 102.547,72.1184 117.88,60.1184 133.5,48.5C 141.144,54.31 148.644,60.31 156,66.5C 163.262,62.1182 170.762,58.1182 178.5,54.5C 178.68,44.6189 179.014,34.7855 179.5,25C 197.336,20.1657 215.169,15.3324 233,10.5C 233.833,10.8333 234.667,11.1667 235.5,11.5C 239.167,18.8333 242.833,26.1667 246.5,33.5C 247.667,33.8333 248.833,34.1667 250,34.5C 258.795,33.2646 267.628,32.4313 276.5,32C 279.667,23.9984 282.334,15.8318 284.5,7.5 Z"/></g>
<g><path style="opacity:0.69" fill="#343130" d="M 299.5,232.5 C 334.796,251.481 369.796,270.981 404.5,291C 382.359,304.24 360.026,317.24 337.5,330C 359.661,341.913 381.661,354.08 403.5,366.5C 404.521,367.002 404.688,367.668 404,368.5C 369.913,388.25 335.579,407.584 301,426.5C 266.406,407.457 232.239,387.79 198.5,367.5C 220.37,354.467 242.37,341.634 264.5,329C 242.833,316.833 221.167,304.667 199.5,292.5C 198.167,291.5 198.167,290.5 199.5,289.5C 233.221,270.979 266.555,251.979 299.5,232.5 Z M 300.5,236.5 C 332.978,254.908 365.645,273.075 398.5,291C 376.833,303.167 355.167,315.333 333.5,327.5C 322.731,321.366 311.898,315.366 301,309.5C 289.907,315.794 278.74,321.627 267.5,327C 246.663,314.747 225.663,302.747 204.5,291C 236.725,273.059 268.725,254.892 300.5,236.5 Z M 301.5,422.5 C 301.5,398.167 301.5,373.833 301.5,349.5C 312.52,343.905 323.354,337.905 334,331.5C 355.419,343.793 376.919,355.96 398.5,368C 365.848,385.658 333.514,403.825 301.5,422.5 Z"/></g>
<g><path style="opacity:1" fill="#cfe170" d="M 76.5,315.5 C 85.1483,315.316 91.9816,318.65 97,325.5C 97.9931,328.408 98.4931,331.408 98.5,334.5C 98.1071,337.864 97.9405,341.197 98,344.5C 108.464,350.369 111.464,359.035 107,370.5C 105.542,372.96 103.709,375.127 101.5,377C 93.7018,380.448 85.7018,383.281 77.5,385.5C 77.1111,382.7 76.6111,380.033 76,377.5C 82.66,374.887 89.16,372.053 95.5,369C 101.124,362.842 100.458,357.509 93.5,353C 90.8333,352.333 88.1667,352.333 85.5,353C 80.2621,354.763 75.0954,356.597 70,358.5C 67.145,356.606 65.8117,353.939 66,350.5C 72.9072,347.629 79.7405,344.629 86.5,341.5C 90.6584,336.419 90.325,331.586 85.5,327C 83.6341,326.015 81.6341,325.515 79.5,325.5C 73.9871,326.714 68.6538,328.548 63.5,331C 61.8333,331.667 60.1667,331.667 58.5,331C 55.38,327.59 55.38,324.59 58.5,322C 64.7128,320.099 70.7128,317.932 76.5,315.5 Z"/></g>
<g><path style="opacity:1" fill="#018ffe" d="M 299.5,313.5 C 300.167,313.5 300.5,313.833 300.5,314.5C 300.666,324.506 300.5,334.506 300,344.5C 291.582,339.374 283.082,334.374 274.5,329.5C 278.704,326.8 283.037,324.3 287.5,322C 288.252,321.329 288.586,320.496 288.5,319.5C 292.007,317.246 295.673,315.246 299.5,313.5 Z"/></g>
<g><path style="opacity:1" fill="#60e5ed" d="M 299.5,313.5 C 300.721,312.535 302.054,312.702 303.5,314C 312.5,319.167 321.5,324.333 330.5,329.5C 320.97,335.43 311.303,341.097 301.5,346.5C 301.828,335.654 301.494,324.987 300.5,314.5C 300.5,313.833 300.167,313.5 299.5,313.5 Z"/></g>
<g><path style="opacity:1" fill="#5be0ff" d="M 302.5,315.5 C 311.133,319.817 319.467,324.65 327.5,330C 319.662,334.753 311.662,339.253 303.5,343.5C 302.502,334.19 302.168,324.857 302.5,315.5 Z"/></g>
<g><path style="opacity:0.993" fill="#444444" d="M 285.5,338.5 C 288.331,339.079 290.664,340.412 292.5,342.5C 294.592,345.917 297.592,348.25 301.5,349.5C 301.5,373.833 301.5,398.167 301.5,422.5C 268.699,404.934 236.366,386.601 204.5,367.5C 225.004,355.414 245.67,343.58 266.5,332C 267.833,331.333 269.167,331.333 270.5,332C 275.035,335.268 280.035,337.435 285.5,338.5 Z"/></g>
<g><path style="opacity:1" fill="#1a99e9" d="M 300.5,314.5 C 301.494,324.987 301.828,335.654 301.5,346.5C 298.648,344.909 295.648,343.576 292.5,342.5C 290.664,340.412 288.331,339.079 285.5,338.5C 280.898,335.524 276.231,332.524 271.5,329.5C 277.03,325.903 282.696,322.57 288.5,319.5C 288.586,320.496 288.252,321.329 287.5,322C 283.037,324.3 278.704,326.8 274.5,329.5C 283.082,334.374 291.582,339.374 300,344.5C 300.5,334.506 300.666,324.506 300.5,314.5 Z"/></g>
<g><path style="opacity:1" fill="#cfe170" d="M 107.5,383.5 C 122.091,381.117 130.424,387.117 132.5,401.5C 132.407,405.55 131.24,409.217 129,412.5C 123.253,418.283 116.753,422.95 109.5,426.5C 107.372,425.946 105.872,424.613 105,422.5C 104.316,421.216 104.483,420.049 105.5,419C 94.8022,411.584 92.3022,402.084 98,390.5C 100.825,387.524 103.992,385.191 107.5,383.5 Z"/></g>
<g><path style="opacity:1" fill="#444444" d="M 110.5,391.5 C 121.098,391.373 124.931,396.373 122,406.5C 119.459,411.069 115.625,412.569 110.5,411C 101.221,404.503 101.221,398.003 110.5,391.5 Z"/></g>
<g><path style="opacity:1" fill="#cee070" d="M 153.5,402.5 C 156.044,403.468 158.211,405.135 160,407.5C 159.853,412.296 157.353,414.13 152.5,413C 151.128,411.758 150.128,410.258 149.5,408.5C 150.859,406.482 152.193,404.482 153.5,402.5 Z"/></g>
<g><path style="opacity:1" fill="#d1e471" d="M 143.5,412.5 C 147.649,413.144 149.815,415.477 150,419.5C 141.864,426.635 134.03,434.135 126.5,442C 122.262,442.419 119.762,440.585 119,436.5C 127.671,428.995 135.838,420.995 143.5,412.5 Z"/></g>
<g><path style="opacity:1" fill="#cfe171" d="M 155.5,431.5 C 174.295,430.81 181.462,439.477 177,457.5C 173.329,464.324 168.496,469.991 162.5,474.5C 160.253,473.594 158.253,472.261 156.5,470.5C 160.862,464.638 165.028,458.638 169,452.5C 170.667,445.158 167.834,440.825 160.5,439.5C 157.972,439.763 155.639,440.596 153.5,442C 149.672,447.656 145.338,452.822 140.5,457.5C 137.89,456.223 135.556,454.557 133.5,452.5C 138.024,447.144 142.357,441.644 146.5,436C 149.324,433.921 152.324,432.421 155.5,431.5 Z"/></g>
<g><path style="opacity:1" fill="#cfe171" d="M 197.5,437.5 C 200.582,438.209 203.249,439.709 205.5,442C 204.015,445.971 202.015,449.638 199.5,453C 205.759,456.285 205.925,460.118 200,464.5C 198.401,462.964 196.567,462.464 194.5,463C 193.397,466.039 191.897,468.873 190,471.5C 188.822,477.137 190.655,481.47 195.5,484.5C 194.066,487.047 192.4,489.381 190.5,491.5C 182.436,486.838 179.269,479.838 181,470.5C 185.965,459.236 191.465,448.236 197.5,437.5 Z"/></g>
<g><path style="opacity:1" fill="#e2e2e2" d="M 227.5,453.5 C 240.767,453.459 248.434,459.959 250.5,473C 247.23,484.248 243.73,495.415 240,506.5C 239.653,508.18 238.653,509.18 237,509.5C 234.251,509.026 231.751,508.026 229.5,506.5C 231.258,502.816 232.592,498.983 233.5,495C 233.095,494.055 232.428,493.388 231.5,493C 226.552,491.346 221.552,489.846 216.5,488.5C 214.609,492.227 212.942,496.061 211.5,500C 208.224,500.373 205.224,499.54 202.5,497.5C 206.514,485.778 210.68,474.111 215,462.5C 218.253,458.059 222.419,455.059 227.5,453.5 Z"/></g>
<g><path style="opacity:1" fill="#e1e1e1" d="M 263.5,462.5 C 265.857,462.337 268.19,462.503 270.5,463C 271.578,463.674 272.245,464.674 272.5,466C 270.211,480.147 268.044,494.314 266,508.5C 265.885,511.008 264.885,513.008 263,514.5C 260.865,513.873 258.698,513.373 256.5,513C 255.978,512.439 255.645,511.772 255.5,511C 258.408,494.868 261.075,478.701 263.5,462.5 Z"/></g>
<g><path style="opacity:1" fill="#444444" d="M 227.5,463.5 C 236.987,462.819 241.154,467.153 240,476.5C 238.659,479.022 237.826,481.689 237.5,484.5C 231.418,483.146 225.418,481.479 219.5,479.5C 219.713,472.816 222.38,467.483 227.5,463.5 Z"/></g>
<g><path style="opacity:1" fill="#e0e0e0" d="M 325.5,463.5 C 334.359,463.838 340.859,467.838 345,475.5C 346.536,487.827 347.702,500.16 348.5,512.5C 348.291,513.086 347.957,513.586 347.5,514C 344.518,514.498 341.518,514.665 338.5,514.5C 337.888,502.822 337.055,491.156 336,479.5C 330.753,471.988 325.086,471.655 319,478.5C 318.399,480.137 317.899,481.803 317.5,483.5C 318.242,494.529 319.242,505.529 320.5,516.5C 317.167,516.5 313.833,516.5 310.5,516.5C 309.337,505.198 308.504,493.864 308,482.5C 302.861,474.005 296.861,473.338 290,480.5C 290.092,493.172 290.592,505.838 291.5,518.5C 288.223,518.784 285.057,518.451 282,517.5C 281.596,506.965 280.763,496.465 279.5,486C 280.22,473.615 286.72,466.781 299,465.5C 303.751,466.04 308.084,467.707 312,470.5C 315.944,466.946 320.444,464.612 325.5,463.5 Z"/></g>
</svg>
